<svg xmlns="http://www.w3.org/2000/svg" width="1000" height="800" viewBox="0 0 1000 800">
  <!-- Background gradient -->
  <defs>
    <linearGradient id="bg-gradient" x1="0%" y1="0%" x2="100%" y2="100%">
      <stop offset="0%" stop-color="#1a2a6c" />
      <stop offset="50%" stop-color="#3a6073" />
      <stop offset="100%" stop-color="#16222a" />
    </linearGradient>
    
    <!-- Sports equipment patterns -->
    <pattern id="pattern-sports" x="0" y="0" width="100" height="100" patternUnits="userSpaceOnUse">
      <!-- Tennis ball -->
      <circle cx="20" cy="20" r="8" fill="#ccff00" opacity="0.2" />
      <path d="M20 12 Q 24 16, 20 20 Q 16 24, 20 28" stroke="#ffffff" fill="none" opacity="0.15" />
      
      <!-- Football/Soccer ball -->
      <circle cx="80" cy="30" r="10" fill="#ffffff" opacity="0.15" />
      <path d="M75 25 L85 35 M75 35 L85 25" stroke="#000000" fill="none" opacity="0.1" />
      
      <!-- Cricket bat -->
      <rect x="60" y="70" width="4" height="20" rx="1" fill="#a52a2a" opacity="0.15" />
      <rect x="57" y="60" width="10" height="12" rx="2" fill="#a52a2a" opacity="0.15" />
      
      <!-- Basketball -->
      <circle cx="25" cy="80" r="10" fill="#ff6600" opacity="0.15" />
      <path d="M25 70 L25 90 M15 80 L35 80" stroke="#000000" fill="none" opacity="0.1" />
    </pattern>
  </defs>
  
  <!-- Main background -->
  <rect width="100%" height="100%" fill="url(#bg-gradient)" />
  
  <!-- Sport equipment pattern overlay -->
  <rect width="100%" height="100%" fill="url(#pattern-sports)" />
  
  <!-- Additional decorative elements -->
  <!-- Stadium/Arena silhouette -->
  <path d="M0 600 Q 500 500, 1000 600 L1000 800 L0 800 Z" fill="#000000" opacity="0.2" />
  
  <!-- Trophy silhouette -->
  <path d="M480 100 L520 100 L530 110 Q550 130, 550 160 Q550 200, 520 220 L510 230 Q505 240, 500 250 Q495 240, 490 230 L480 220 Q450 200, 450 160 Q450 130, 470 110 Z" fill="#ffffff" opacity="0.07" />
  <rect x="490" y="250" width="20" height="30" fill="#ffffff" opacity="0.07" />
  <rect x="480" y="280" width="40" height="10" rx="2" fill="#ffffff" opacity="0.07" />
  
  <!-- Dynamic curves -->
  <path d="M0 300 Q 250 350, 500 300 Q 750 250, 1000 300" stroke="#ffffff" stroke-width="2" fill="none" opacity="0.05" />
  <path d="M0 400 Q 250 350, 500 400 Q 750 450, 1000 400" stroke="#ffffff" stroke-width="2" fill="none" opacity="0.05" />
</svg>