<svg xmlns="http://www.w3.org/2000/svg" width="1000" height="800" viewBox="0 0 1000 800">
  <!-- Background gradient -->
  <defs>
    <linearGradient id="bg-gradient" x1="0%" y1="0%" x2="100%" y2="100%">
      <stop offset="0%" stop-color="#134e5e" />
      <stop offset="100%" stop-color="#71b280" />
    </linearGradient>
    
    <!-- Field/Court pattern -->
    <pattern id="field-pattern" x="0" y="0" width="200" height="200" patternUnits="userSpaceOnUse">
      <!-- Soccer field lines -->
      <rect x="10" y="10" width="180" height="280" stroke="#ffffff" stroke-width="2" fill="none" opacity="0.1" />
      <circle cx="100" cy="150" r="30" stroke="#ffffff" stroke-width="2" fill="none" opacity="0.1" />
      <line x1="10" y1="150" x2="190" y2="150" stroke="#ffffff" stroke-width="2" opacity="0.1" />
      
      <!-- Tennis court lines -->
      <rect x="210" y="10" width="180" height="280" stroke="#ffffff" stroke-width="2" fill="none" opacity="0.1" />
      <line x1="300" y1="10" x2="300" y2="290" stroke="#ffffff" stroke-width="2" opacity="0.1" />
      <line x1="210" y1="95" x2="390" y2="95" stroke="#ffffff" stroke-width="2" opacity="0.1" />
      <line x1="210" y1="205" x2="390" y2="205" stroke="#ffffff" stroke-width="2" opacity="0.1" />
      
      <!-- Cricket pitch -->
      <rect x="10" y="310" width="180" height="30" fill="#d2b48c" opacity="0.1" />
      <line x1="60" y1="310" x2="60" y2="340" stroke="#ffffff" stroke-width="1" opacity="0.1" />
      <line x1="140" y1="310" x2="140" y2="340" stroke="#ffffff" stroke-width="1" opacity="0.1" />
      
      <!-- Basketball court -->
      <rect x="210" y="310" width="180" height="120" stroke="#ffffff" stroke-width="2" fill="none" opacity="0.1" />
      <circle cx="300" cy="370" r="20" stroke="#ffffff" stroke-width="2" fill="none" opacity="0.1" />
    </pattern>
  </defs>
  
  <!-- Main background -->
  <rect width="100%" height="100%" fill="url(#bg-gradient)" />
  
  <!-- Sports field pattern overlay -->
  <rect width="100%" height="100%" fill="url(#field-pattern)" />
  
  <!-- Decorative elements -->
  <!-- Calendar icons -->
  <g opacity="0.05">
    <rect x="100" y="100" width="60" height="60" rx="5" fill="#ffffff" />
    <rect x="110" y="115" width="10" height="10" fill="#000000" />
    <rect x="125" y="115" width="10" height="10" fill="#000000" />
    <rect x="140" y="115" width="10" height="10" fill="#000000" />
    <rect x="110" y="130" width="10" height="10" fill="#000000" />
    <rect x="125" y="130" width="10" height="10" fill="#000000" />
    <rect x="140" y="130" width="10" height="10" fill="#000000" />
  </g>
  
  <g opacity="0.05">
    <rect x="800" y="200" width="60" height="60" rx="5" fill="#ffffff" />
    <rect x="810" y="215" width="10" height="10" fill="#000000" />
    <rect x="825" y="215" width="10" height="10" fill="#000000" />
    <rect x="840" y="215" width="10" height="10" fill="#000000" />
    <rect x="810" y="230" width="10" height="10" fill="#000000" />
    <rect x="825" y="230" width="10" height="10" fill="#000000" />
    <rect x="840" y="230" width="10" height="10" fill="#000000" />
  </g>
  
  <!-- Whistle icon -->
  <g opacity="0.05">
    <ellipse cx="200" cy="500" rx="15" ry="10" fill="#ffffff" />
    <rect x="215" y="495" width="20" height="10" rx="5" fill="#ffffff" />
    <circle cx="230" cy="500" r="3" fill="#ffffff" />
    <path d="M180 500 L170 510" stroke="#ffffff" stroke-width="2" />
  </g>
  
  <!-- Trophy icon -->
  <g opacity="0.05">
    <path d="M700 450 L740 450 L750 460 Q770 480, 770 510 Q770 550, 740 570 L730 580 Q725 590, 720 600 Q715 590, 710 580 L700 570 Q670 550, 670 510 Q670 480, 690 460 Z" fill="#ffffff" />
    <rect x="710" y="600" width="20" height="30" fill="#ffffff" />
    <rect x="700" y="630" width="40" height="10" rx="2" fill="#ffffff" />
  </g>
  
  <!-- Dynamic waves -->
  <path d="M0 700 Q 250 650, 500 700 Q 750 750, 1000 700" stroke="#ffffff" stroke-width="3" fill="none" opacity="0.1" />
  <path d="M0 750 Q 250 800, 500 750 Q 750 700, 1000 750" stroke="#ffffff" stroke-width="3" fill="none" opacity="0.1" />
</svg>